<svg width="22" height="9" viewBox="0 0 22 9" fill="none" xmlns="http://www.w3.org/2000/svg">
<path d="M3.55704 7.5907L2.05158 6.08524C1.91126 5.94605 1.80155 5.77909 1.72949 5.59505C1.65742 5.41101 1.62459 5.21394 1.6331 5.01648C1.6416 4.81901 1.69125 4.6255 1.77887 4.44834C1.86649 4.27117 1.99014 4.11426 2.14191 3.98765C3.85387 2.61126 5.86482 1.65563 8.01318 1.19754C9.99611 0.75552 12.0521 0.75552 14.035 1.19754C16.1922 1.6586 18.2105 2.62132 19.9263 4.00772C20.0776 4.13395 20.201 4.2903 20.2886 4.46682C20.3762 4.64334 20.426 4.83616 20.435 5.033C20.4439 5.22985 20.4118 5.4264 20.3407 5.61016C20.2695 5.79391 20.1609 5.96083 20.0217 6.1003L18.5162 7.60575C18.2751 7.85168 17.9527 8.00154 17.6093 8.02739C17.2658 8.05324 16.9247 7.95333 16.6495 7.74626C16.1041 7.32802 15.5133 6.97282 14.8881 6.68743C14.641 6.57533 14.4311 6.39474 14.2835 6.16705C14.1359 5.93937 14.0566 5.67413 14.0551 5.40277L14.0551 4.12815C12.0844 3.5862 10.0039 3.5862 8.03325 4.12816V5.40277C8.03173 5.67413 7.95246 5.93937 7.80482 6.16705C7.65718 6.39474 7.44736 6.57533 7.20023 6.68743C6.57506 6.97282 5.98417 7.32802 5.43885 7.74626C5.1607 7.95564 4.81529 8.05548 4.46832 8.0268C4.12136 7.99811 3.79703 7.84291 3.55704 7.5907Z" fill="white" stroke="white" stroke-width="1.41935" stroke-linecap="round" stroke-linejoin="round"/>
</svg>
