<svg xmlns="http://www.w3.org/2000/svg" width="44" height="43" viewBox="0 0 44 43">
  <g id="Group_13732" data-name="Group 13732" transform="translate(14894 -21446)">
    <g id="Group_13731" data-name="Group 13731" transform="translate(-284 -4)">
      <g id="Group_13728" data-name="Group 13728" transform="translate(-14609.952 21450.117)">
        <rect id="Rectangle_4344" data-name="Rectangle 4344" width="44" height="43" transform="translate(-0.048 -0.117)" fill="none"/>
      </g>
    </g>
    <path id="microphone-slash" d="M15.089,5.315a3.02,3.02,0,0,1,4.544-.222,3.23,3.23,0,0,1,.847,2.239v5.415a1.541,1.541,0,1,0,3.081,0V7.332A6.339,6.339,0,0,0,19.5,1.539a6.041,6.041,0,0,0-6.719,1.775A1.617,1.617,0,0,0,12.254,5a1.554,1.554,0,0,0,1.315,1.139A1.529,1.529,0,0,0,15.089,5.315Zm12.663,15.15h.308a1.552,1.552,0,0,0,1.54-1.286,12.943,12.943,0,0,0,.123-2.318,1.541,1.541,0,1,0-3.081,0,9.06,9.06,0,0,1-.169,1.747,1.627,1.627,0,0,0,.258,1.208,1.535,1.535,0,0,0,1.02.65Zm4.621,9.623L4.645,1.5a1.508,1.508,0,0,0-2.188,0,1.623,1.623,0,0,0,0,2.239l8.781,9.115v4a6.39,6.39,0,0,0,3.084,5.5,6,6,0,0,0,6.159,0l2.249,2.318a9.011,9.011,0,0,1-9.595.669A9.57,9.57,0,0,1,8.157,16.86a1.541,1.541,0,1,0-3.081,0A12.578,12.578,0,0,0,15.86,29.453V32.74H12.779a1.589,1.589,0,0,0,0,3.176h9.243a1.589,1.589,0,0,0,0-3.176H18.94V29.453a11.931,11.931,0,0,0,5.931-2.525l5.238,5.4a1.509,1.509,0,0,0,2.18.008,1.624,1.624,0,0,0,.008-2.247ZM17.4,20.036a3.13,3.13,0,0,1-3.081-3.176v-.826l3.774,3.907A2.605,2.605,0,0,1,17.4,20.036Z" transform="translate(-14889.509 21449.465)" fill="#ed1c24" stroke="#f8f8f8" stroke-width="1"/>
  </g>
</svg>
