<svg xmlns="http://www.w3.org/2000/svg" width="44" height="43" viewBox="0 0 44 43">
  <g id="Group_13730" data-name="Group 13730" transform="translate(14610 -21450)">
    <g id="Group_13728" data-name="Group 13728" transform="translate(-14609.952 21450.117)">
      <rect id="Rectangle_4344" data-name="Rectangle 4344" width="44" height="43" transform="translate(-0.048 -0.117)" fill="none"/>
    </g>
    <path id="microphone" d="M16.727,23.272a6.363,6.363,0,0,0,6.363-6.363V7.363a6.363,6.363,0,1,0-12.727,0v9.545A6.363,6.363,0,0,0,16.727,23.272ZM13.545,7.363a3.182,3.182,0,1,1,6.363,0v9.545a3.182,3.182,0,1,1-6.363,0Zm15.909,9.545a1.591,1.591,0,0,0-3.182,0,9.545,9.545,0,1,1-19.09,0,1.591,1.591,0,0,0-3.182,0A12.727,12.727,0,0,0,15.136,29.524v3.293H11.954a1.591,1.591,0,1,0,0,3.182H21.5a1.591,1.591,0,1,0,0-3.182H18.318V29.524A12.727,12.727,0,0,0,29.454,16.909Z" transform="translate(-14604.5 21453.5)" fill="#253646" stroke="#f8f8f8" stroke-width="1"/>
  </g>
</svg>
