<svg width="28" height="33" viewBox="0 0 28 33" fill="none" xmlns="http://www.w3.org/2000/svg">
<path fill-rule="evenodd" clip-rule="evenodd" d="M2.75 3V30H25.25V12H27.5V30C27.5 30.5967 27.2629 31.169 26.841 31.591C26.419 32.0129 25.8467 32.25 25.25 32.25H2.75C2.15326 32.25 1.58097 32.0129 1.15901 31.591C0.737053 31.169 0.5 30.5967 0.5 30V3C0.5 2.40326 0.737053 1.83097 1.15901 1.40901C1.58097 0.987053 2.15326 0.75 2.75 0.75H16.25V3H2.75ZM20.75 9.75H27.5L18.5 0.75V7.5C18.5 8.09674 18.7371 8.66903 19.159 9.09099C19.581 9.51295 20.1533 9.75 20.75 9.75ZM5 14.25V22.125H6.575V19.425H8.0375C8.72375 19.425 9.38189 19.1524 9.86714 18.6671C10.3524 18.1819 10.625 17.5237 10.625 16.8375C10.625 16.1513 10.3524 15.4931 9.86714 15.0079C9.38189 14.5226 8.72375 14.25 8.0375 14.25H5ZM9.05 16.8375C9.05 17.106 8.94333 17.3636 8.75345 17.5534C8.56357 17.7433 8.30603 17.85 8.0375 17.85H6.575V15.825H8.0375C8.30603 15.825 8.56357 15.9317 8.75345 16.1216C8.94333 16.3114 9.05 16.569 9.05 16.8375ZM11.75 22.125V14.25H14C14.8951 14.25 15.7536 14.6056 16.3865 15.2385C17.0194 15.8714 17.375 16.7299 17.375 17.625V18.75C17.375 19.6451 17.0194 20.5036 16.3865 21.1365C15.7536 21.7694 14.8951 22.125 14 22.125H11.75ZM15.8 18.75V17.625C15.8 17.1476 15.6104 16.6898 15.2728 16.3522C14.9352 16.0146 14.4774 15.825 14 15.825H13.325V20.55H14C14.4774 20.55 14.9352 20.3604 15.2728 20.0228C15.6104 19.6852 15.8 19.2274 15.8 18.75ZM20.075 19.2H22.55V17.625H20.075V15.825H23V14.25H18.5V22.125H20.075V19.2Z" fill="#D60000"/>
</svg>
