<svg xmlns="http://www.w3.org/2000/svg" width="44" height="43" viewBox="0 0 44 43">
  <g id="Group_13736" data-name="Group 13736" transform="translate(14135 -21374)">
    <g id="Group_13735" data-name="Group 13735" transform="translate(-14134.856 21374.117)">
      <rect id="Rectangle_4342" data-name="Rectangle 4342" width="44" height="43" transform="translate(-0.144 -0.117)" fill="none"/>
    </g>
    <g id="noun_Share_6296" transform="translate(-14140.166 21366.318)">
      <g id="Group_13734" data-name="Group 13734" transform="translate(13.166 15.682)">
        <path id="Path_22785" data-name="Path 22785" d="M30.923,34.392a1.751,1.751,0,1,0,3.5,0,7.092,7.092,0,0,1,7.042-7.125h8.1l-4.956,5.015a1.786,1.786,0,0,0,0,2.505,1.736,1.736,0,0,0,2.476,0l7.945-8.038a1.8,1.8,0,0,0,.222-.274c.023-.035.038-.073.058-.109a1.666,1.666,0,0,0,.1-.2c.02-.048.03-.1.046-.148a1.742,1.742,0,0,0,.053-.183,1.786,1.786,0,0,0,.027-.265c0-.027.008-.053.008-.08s-.007-.047-.007-.072a1.853,1.853,0,0,0-.027-.274,1.534,1.534,0,0,0-.051-.173c-.016-.053-.027-.107-.048-.159a1.825,1.825,0,0,0-.095-.182c-.023-.041-.04-.084-.067-.124a1.749,1.749,0,0,0-.218-.271h0L47.089,16.2a1.737,1.737,0,0,0-2.477,0,1.787,1.787,0,0,0,0,2.506l4.956,5.015h-8.1A10.62,10.62,0,0,0,30.923,34.392Z" transform="translate(-26.549 -15.683)" fill="#ed1c24" stroke="#f8f8f8" stroke-width="1"/>
        <path id="Path_22786" data-name="Path 22786" d="M40.6,33.215A1.579,1.579,0,0,0,39.03,34.8v5.877H16.3v-21.5h9.863a1.589,1.589,0,0,0,0-3.178H16.3a3.157,3.157,0,0,0-3.135,3.178v21.5A3.157,3.157,0,0,0,16.3,43.859H39.03a3.157,3.157,0,0,0,3.135-3.178V34.8A1.579,1.579,0,0,0,40.6,33.215Z" transform="translate(-13.166 -15.859)" fill="#ed1c24" stroke="#f8f8f8" stroke-width="1"/>
      </g>
    </g>
  </g>
</svg>
