<svg width="24" height="25" viewBox="0 0 24 25" fill="none" xmlns="http://www.w3.org/2000/svg">
<path d="M17 21.3418V19.3418C17 18.2809 16.5786 17.2635 15.8284 16.5134C15.0783 15.7632 14.0609 15.3418 13 15.3418H5C3.93913 15.3418 2.92172 15.7632 2.17157 16.5134C1.42143 17.2635 1 18.2809 1 19.3418V21.3418" stroke="#5C5C5C" stroke-width="1.5" stroke-linecap="round" stroke-linejoin="round"/>
<path d="M9 11.3418C11.2091 11.3418 13 9.55094 13 7.3418C13 5.13266 11.2091 3.3418 9 3.3418C6.79086 3.3418 5 5.13266 5 7.3418C5 9.55094 6.79086 11.3418 9 11.3418Z" stroke="#5C5C5C" stroke-width="1.5" stroke-linecap="round" stroke-linejoin="round"/>
<path d="M23 21.3418V19.3418C22.9993 18.4555 22.7044 17.5946 22.1614 16.8941C21.6184 16.1937 20.8581 15.6934 20 15.4718" stroke="#5C5C5C" stroke-width="1.5" stroke-linecap="round" stroke-linejoin="round"/>
<path d="M16 3.4718C16.8604 3.6921 17.623 4.1925 18.1676 4.89411C18.7122 5.59572 19.0078 6.45863 19.0078 7.3468C19.0078 8.23497 18.7122 9.09788 18.1676 9.79949C17.623 10.5011 16.8604 11.0015 16 11.2218" stroke="#5C5C5C" stroke-width="1.5" stroke-linecap="round" stroke-linejoin="round"/>
</svg>
