<svg xmlns="http://www.w3.org/2000/svg" width="42" height="43" viewBox="0 0 42 43">
  <g id="Group_13727" data-name="Group 13727" transform="translate(15045 -21372)">
    <g id="Group_13726" data-name="Group 13726" transform="translate(-15044.861 21372.117)">
      <rect id="Rectangle_4341" data-name="Rectangle 4341" width="42" height="43" transform="translate(-0.139 -0.117)" fill="none"/>
    </g>
    <path id="video-slash" d="M12.713,10.05h0l-7.5-7.5A1.883,1.883,0,0,0,2.547,5.211l4.37,4.3A5.627,5.627,0,0,0,2,15.132V26.386A5.627,5.627,0,0,0,7.63,32.012H24.51a5.627,5.627,0,0,0,3.564-1.294l8.234,8.252a1.883,1.883,0,1,0,2.663-2.663Zm11.8,18.212H7.63a1.876,1.876,0,0,1-1.876-1.876V15.132A1.876,1.876,0,0,1,7.63,13.257h2.982L25.373,28.036A1.876,1.876,0,0,1,24.51,28.261Zm14.123-16.6a1.876,1.876,0,0,0-1.876,0l-6.621,3.263a5.627,5.627,0,0,0-5.627-5.42H22a1.876,1.876,0,0,0,0,3.751H24.51a1.876,1.876,0,0,1,1.876,1.876v2.813h0a3.038,3.038,0,0,0,0,.356,1.219,1.219,0,0,0,.094.375h0a1.319,1.319,0,0,1,.131.188,1.875,1.875,0,0,0,.281.394s.188.113.281.188l.319.206a1.594,1.594,0,0,0,.431,0,1.313,1.313,0,0,0,.263,0h0a3.038,3.038,0,0,0,.356,0,1.219,1.219,0,0,0,.375-.094h0L35.763,16.3V27.023a1.876,1.876,0,1,0,3.751,0V13.257a1.876,1.876,0,0,0-.882-1.594Z" transform="translate(-15044.496 21372.504)" fill="#ed1c24" stroke="#f8f8f8" stroke-width="1.5"/>
  </g>
</svg>
