<svg width="20" height="13" viewBox="0 0 20 13" fill="none" xmlns="http://www.w3.org/2000/svg">
<path d="M10 10.4C11.1364 10.4 12.1023 10.0208 12.8977 9.2625C13.6932 8.50417 14.0909 7.58333 14.0909 6.5C14.0909 5.41667 13.6932 4.49583 12.8977 3.7375C12.1023 2.97917 11.1364 2.6 10 2.6C8.86364 2.6 7.89773 2.97917 7.10227 3.7375C6.30682 4.49583 5.90909 5.41667 5.90909 6.5C5.90909 7.58333 6.30682 8.50417 7.10227 9.2625C7.89773 10.0208 8.86364 10.4 10 10.4ZM10 8.84C9.31818 8.84 8.73864 8.6125 8.26136 8.1575C7.78409 7.7025 7.54545 7.15 7.54545 6.5C7.54545 5.85 7.78409 5.2975 8.26136 4.8425C8.73864 4.3875 9.31818 4.16 10 4.16C10.6818 4.16 11.2614 4.3875 11.7386 4.8425C12.2159 5.2975 12.4545 5.85 12.4545 6.5C12.4545 7.15 12.2159 7.7025 11.7386 8.1575C11.2614 8.6125 10.6818 8.84 10 8.84ZM10 13C7.78788 13 5.77273 12.4114 3.95455 11.2342C2.13636 10.0569 0.818182 8.47889 0 6.5C0.818182 4.52111 2.13636 2.94306 3.95455 1.76583C5.77273 0.588611 7.78788 0 10 0C12.2121 0 14.2273 0.588611 16.0455 1.76583C17.8636 2.94306 19.1818 4.52111 20 6.5C19.1818 8.47889 17.8636 10.0569 16.0455 11.2342C14.2273 12.4114 12.2121 13 10 13ZM10 11.2667C11.7121 11.2667 13.2841 10.8369 14.7159 9.9775C16.1477 9.11806 17.2424 7.95889 18 6.5C17.2424 5.04111 16.1477 3.88194 14.7159 3.0225C13.2841 2.16306 11.7121 1.73333 10 1.73333C8.28788 1.73333 6.71591 2.16306 5.28409 3.0225C3.85227 3.88194 2.75758 5.04111 2 6.5C2.75758 7.95889 3.85227 9.11806 5.28409 9.9775C6.71591 10.8369 8.28788 11.2667 10 11.2667Z" fill="#5C5C5C"/>
</svg>
