<svg width="32" height="29" viewBox="0 0 32 29" fill="none" xmlns="http://www.w3.org/2000/svg">
<path fill-rule="evenodd" clip-rule="evenodd" d="M27.8069 0.944397C28.0249 0.931095 28.2412 0.944641 28.4558 0.984952C29.2392 1.37655 29.9962 1.8091 30.7269 2.2827C31.7171 3.3733 31.974 4.6305 31.4974 6.05429C30.8485 7.94682 30.1997 9.83942 29.5508 11.7319C29.4561 13.3129 28.8478 14.6512 27.7258 15.7469C27.3868 15.9772 27.0218 16.153 26.6308 16.2741C26.2319 21.7257 23.5687 25.6054 18.6416 27.9133C15.032 29.3214 11.4496 29.2539 7.89457 27.7105C6.03392 28.2111 4.15494 28.3057 2.25747 27.9944C0.660828 27.4583 0.322845 26.4985 1.2436 25.115C1.85289 24.6138 2.40719 24.0596 2.90634 23.4523C0.417175 19.4984 -0.0289267 15.3213 1.56804 10.9209C3.70203 6.25187 7.31139 3.58881 12.3961 2.93158C13.2626 1.56716 14.3982 1.29682 15.8027 2.12048C16.7722 3.22657 16.7722 4.3351 15.8027 5.44597C14.4565 6.23379 13.348 5.99046 12.4773 4.71599C8.67963 5.18812 5.80024 7.0671 3.8391 10.3531C1.93076 14.0976 1.95777 17.8286 3.92021 21.5462C4.34985 22.1759 4.76894 22.8113 5.17741 23.4523C4.43014 24.4434 3.59196 25.3626 2.66301 26.21C4.54646 26.4896 6.39843 26.3408 8.21901 25.7639C12.0372 27.674 15.8087 27.5794 19.5338 25.48C22.7815 23.3526 24.5118 20.3381 24.7248 16.4363C23.5172 16.0264 22.6926 15.2153 22.2509 14.003C21.9476 13.249 21.7854 12.4649 21.7643 11.6508C21.1424 9.73122 20.5206 7.81169 19.8988 5.89207C19.5264 3.12778 20.716 1.50559 23.4676 1.02551C24.2552 1.06184 24.6066 1.46739 24.522 2.24215C24.3624 2.80935 23.9839 3.07968 23.3865 3.05324C23.0861 3.03159 22.8022 2.95048 22.5348 2.80991C21.4806 3.31312 21.0345 4.1513 21.1965 5.32431C21.8727 7.29883 22.5486 9.27255 23.2243 11.2453C23.4063 11.4175 23.5686 11.6067 23.7109 11.8131C23.8662 12.6993 24.2311 13.4833 24.8059 14.1652C25.8835 14.7658 26.6811 14.4954 27.1986 13.3541C27.3608 12.8134 27.5231 12.2727 27.6853 11.7319C27.8778 11.5666 28.04 11.3773 28.1719 11.1642C28.8493 9.34782 29.5252 7.5364 30.1997 5.72985C30.4024 4.76944 30.2131 3.90424 29.6319 3.13435C29.2418 2.76052 28.8227 2.71996 28.3747 3.01269C27.5201 3.07701 27.074 2.68501 27.0364 1.8366C27.2241 1.47364 27.4809 1.17621 27.8069 0.944397Z" fill="url(#paint0_linear_38_6276)"/>
<path fill-rule="evenodd" clip-rule="evenodd" d="M11.9091 9.86328C13.0446 9.86328 14.1802 9.86328 15.3157 9.86328C15.3157 11.3233 15.3157 12.7832 15.3157 14.2432C16.7487 14.2432 18.1815 14.2432 19.6145 14.2432C19.6145 15.3246 19.6145 16.4061 19.6145 17.4876C18.1815 17.4876 16.7487 17.4876 15.3157 17.4876C15.3157 18.9475 15.3157 20.4075 15.3157 21.8675C14.2072 21.8675 13.0987 21.8675 11.9902 21.8675C11.9902 20.4616 11.9902 19.0557 11.9902 17.6498C10.5714 17.5689 9.13848 17.5419 7.69141 17.5687C7.69141 16.4602 7.69141 15.3517 7.69141 14.2432C9.09728 14.2432 10.5032 14.2432 11.9091 14.2432C11.9091 12.7832 11.9091 11.3233 11.9091 9.86328Z" fill="url(#paint1_linear_38_6276)"/>
<defs>
<linearGradient id="paint0_linear_38_6276" x1="2.0107" y1="26.0023" x2="28.8579" y2="7.26599" gradientUnits="userSpaceOnUse">
<stop offset="0.192708" stop-color="#156778"/>
<stop offset="1" stop-color="#4FB7CD"/>
</linearGradient>
<linearGradient id="paint1_linear_38_6276" x1="9.7157" y1="20.2809" x2="17.7455" y2="13.9138" gradientUnits="userSpaceOnUse">
<stop stop-color="#166879"/>
<stop offset="1" stop-color="#40A3B7"/>
</linearGradient>
</defs>
</svg>
