<svg width="71" height="51" viewBox="0 0 71 51" fill="none" xmlns="http://www.w3.org/2000/svg">
<g clip-path="url(#clip0_62_4395)">
<path d="M46 33.5L38 25.5L30 33.5" stroke="#156778" stroke-width="2" stroke-linecap="round" stroke-linejoin="round"/>
<path d="M38 25.5V43.5" stroke="#156778" stroke-width="2" stroke-linecap="round" stroke-linejoin="round"/>
<path d="M54.7799 38.28C56.7306 37.2165 58.2716 35.5338 59.1597 33.4973C60.0477 31.4607 60.2323 29.1865 59.6843 27.0334C59.1363 24.8803 57.8869 22.971 56.1333 21.6069C54.3796 20.2428 52.2216 19.5015 49.9999 19.5H47.4799C46.8745 17.1585 45.7462 14.9847 44.1798 13.142C42.6134 11.2993 40.6496 9.8357 38.4361 8.86121C36.2226 7.88673 33.817 7.42672 31.4002 7.51576C28.9833 7.60481 26.6181 8.2406 24.4823 9.37533C22.3465 10.5101 20.4957 12.1142 19.0692 14.0672C17.6426 16.0201 16.6773 18.2711 16.2459 20.6508C15.8145 23.0305 15.9281 25.4771 16.5783 27.8065C17.2286 30.136 18.3984 32.2877 19.9999 34.1" stroke="#156778" stroke-width="2" stroke-linecap="round" stroke-linejoin="round"/>
<path d="M46 33.5L38 25.5L30 33.5" stroke="#156778" stroke-width="2" stroke-linecap="round" stroke-linejoin="round"/>
<path d="M5.05039 28.5833C4.9615 28.5833 4.87539 28.5583 4.79206 28.5083C4.70872 28.4583 4.64484 28.3889 4.60039 28.3L3.51706 25.9833L1.18372 24.9333C1.09484 24.8889 1.02539 24.825 0.975391 24.7416C0.925391 24.6583 0.900391 24.5722 0.900391 24.4833C0.900391 24.3944 0.925391 24.3083 0.975391 24.225C1.02539 24.1416 1.09484 24.0777 1.18372 24.0333L3.51706 22.9833L4.60039 20.6833C4.64484 20.5833 4.70872 20.5083 4.79206 20.4583C4.87539 20.4083 4.9615 20.3833 5.05039 20.3833C5.13928 20.3833 5.22539 20.4083 5.30872 20.4583C5.39206 20.5083 5.45595 20.5777 5.50039 20.6666L6.60039 22.9833L8.91706 24.0333C9.01706 24.0777 9.09206 24.1416 9.14206 24.225C9.19206 24.3083 9.21706 24.3944 9.21706 24.4833C9.21706 24.5722 9.19206 24.6583 9.14206 24.7416C9.09206 24.825 9.01706 24.8889 8.91706 24.9333L6.60039 25.9833L5.50039 28.3C5.45595 28.4 5.39206 28.4722 5.30872 28.5166C5.22539 28.5611 5.13928 28.5833 5.05039 28.5833ZM5.05039 26.8L5.85039 25.2L7.48372 24.4833L5.85039 23.7666L5.05039 22.1666L4.26706 23.7666L2.61706 24.4833L4.26706 25.2L5.05039 26.8Z" fill="#156778"/>
<path d="M54.0504 9.5833C53.9615 9.5833 53.8754 9.5583 53.7921 9.5083C53.7087 9.4583 53.6448 9.38886 53.6004 9.29997L52.5171 6.9833L50.1837 5.9333C50.0948 5.88886 50.0254 5.82497 49.9754 5.74163C49.9254 5.6583 49.9004 5.57219 49.9004 5.4833C49.9004 5.39441 49.9254 5.3083 49.9754 5.22497C50.0254 5.14163 50.0948 5.07775 50.1837 5.0333L52.5171 3.9833L53.6004 1.6833C53.6448 1.5833 53.7087 1.5083 53.7921 1.4583C53.8754 1.4083 53.9615 1.3833 54.0504 1.3833C54.1393 1.3833 54.2254 1.4083 54.3087 1.4583C54.3921 1.5083 54.4559 1.57775 54.5004 1.66663L55.6004 3.9833L57.9171 5.0333C58.0171 5.07775 58.0921 5.14163 58.1421 5.22497C58.1921 5.3083 58.2171 5.39441 58.2171 5.4833C58.2171 5.57219 58.1921 5.6583 58.1421 5.74163C58.0921 5.82497 58.0171 5.88886 57.9171 5.9333L55.6004 6.9833L54.5004 9.29997C54.4559 9.39997 54.3921 9.47219 54.3087 9.51663C54.2254 9.56108 54.1393 9.5833 54.0504 9.5833ZM54.0504 7.79997L54.8504 6.19997L56.4837 5.4833L54.8504 4.76663L54.0504 3.16663L53.2671 4.76663L51.6171 5.4833L53.2671 6.19997L54.0504 7.79997Z" fill="#156778"/>
<path d="M66.0504 49.5833C65.9615 49.5833 65.8754 49.5583 65.7921 49.5083C65.7087 49.4583 65.6448 49.3889 65.6004 49.3L64.5171 46.9833L62.1837 45.9333C62.0948 45.8889 62.0254 45.825 61.9754 45.7416C61.9254 45.6583 61.9004 45.5722 61.9004 45.4833C61.9004 45.3944 61.9254 45.3083 61.9754 45.225C62.0254 45.1416 62.0948 45.0777 62.1837 45.0333L64.5171 43.9833L65.6004 41.6833C65.6448 41.5833 65.7087 41.5083 65.7921 41.4583C65.8754 41.4083 65.9615 41.3833 66.0504 41.3833C66.1393 41.3833 66.2254 41.4083 66.3087 41.4583C66.3921 41.5083 66.4559 41.5777 66.5004 41.6666L67.6004 43.9833L69.9171 45.0333C70.0171 45.0777 70.0921 45.1416 70.1421 45.225C70.1921 45.3083 70.2171 45.3944 70.2171 45.4833C70.2171 45.5722 70.1921 45.6583 70.1421 45.7416C70.0921 45.825 70.0171 45.8889 69.9171 45.9333L67.6004 46.9833L66.5004 49.3C66.4559 49.4 66.3921 49.4722 66.3087 49.5166C66.2254 49.5611 66.1393 49.5833 66.0504 49.5833ZM66.0504 47.8L66.8504 46.2L68.4837 45.4833L66.8504 44.7666L66.0504 43.1666L65.2671 44.7666L63.6171 45.4833L65.2671 46.2L66.0504 47.8Z" fill="#156778"/>
</g>
<defs>
<clipPath id="clip0_62_4395">
<rect width="70" height="50" fill="white" transform="translate(0.5 0.5)"/>
</clipPath>
</defs>
</svg>
