<svg width="184" height="38" viewBox="0 0 184 38" fill="none" xmlns="http://www.w3.org/2000/svg">
<path fill-rule="evenodd" clip-rule="evenodd" d="M34.8069 5.9444C35.0249 5.9311 35.2412 5.94464 35.4558 5.98495C36.2392 6.37655 36.9962 6.8091 37.7269 7.2827C38.7171 8.3733 38.974 9.6305 38.4974 11.0543C37.8485 12.9468 37.1997 14.8394 36.5508 16.7319C36.4561 18.3129 35.8478 19.6512 34.7258 20.7469C34.3868 20.9772 34.0218 21.153 33.6308 21.2741C33.2319 26.7257 30.5687 30.6054 25.6416 32.9133C22.032 34.3214 18.4496 34.2539 14.8946 32.7105C13.0339 33.2111 11.1549 33.3057 9.25747 32.9944C7.66083 32.4583 7.32284 31.4985 8.2436 30.115C8.85289 29.6138 9.40719 29.0596 9.90634 28.4523C7.41718 24.4984 6.97107 20.3213 8.56804 15.9209C10.702 11.2519 14.3114 8.58881 19.3961 7.93158C20.2626 6.56716 21.3982 6.29682 22.8027 7.12048C23.7722 8.22657 23.7722 9.3351 22.8027 10.446C21.4565 11.2338 20.348 10.9905 19.4773 9.71599C15.6796 10.1881 12.8002 12.0671 10.8391 15.3531C8.93076 19.0976 8.95777 22.8286 10.9202 26.5462C11.3498 27.1759 11.7689 27.8113 12.1774 28.4523C11.4301 29.4434 10.592 30.3626 9.66301 31.21C11.5465 31.4896 13.3984 31.3408 15.219 30.7639C19.0372 32.674 22.8087 32.5794 26.5338 30.48C29.7815 28.3526 31.5118 25.3381 31.7248 21.4363C30.5172 21.0264 29.6926 20.2153 29.2509 19.003C28.9476 18.249 28.7854 17.4649 28.7643 16.6508C28.1424 14.7312 27.5206 12.8117 26.8988 10.8921C26.5264 8.12778 27.716 6.50559 30.4676 6.02551C31.2552 6.06184 31.6066 6.46739 31.522 7.24215C31.3624 7.80935 30.9839 8.07968 30.3865 8.05324C30.0861 8.03159 29.8022 7.95048 29.5348 7.80991C28.4806 8.31312 28.0345 9.1513 28.1965 10.3243C28.8727 12.2988 29.5486 14.2725 30.2243 16.2453C30.4063 16.4175 30.5686 16.6067 30.7109 16.8131C30.8662 17.6993 31.2311 18.4833 31.8059 19.1652C32.8835 19.7658 33.6811 19.4954 34.1986 18.3541C34.3608 17.8134 34.5231 17.2727 34.6853 16.7319C34.8778 16.5666 35.04 16.3773 35.1719 16.1642C35.8493 14.3478 36.5252 12.5364 37.1997 10.7299C37.4024 9.76944 37.2131 8.90424 36.6319 8.13435C36.2418 7.76052 35.8227 7.71996 35.3747 8.01269C34.5201 8.07701 34.074 7.68501 34.0364 6.8366C34.2241 6.47364 34.4809 6.17621 34.8069 5.9444Z" fill="url(#paint0_linear_38_6275)"/>
<path fill-rule="evenodd" clip-rule="evenodd" d="M18.9091 14.8633C20.0446 14.8633 21.1802 14.8633 22.3157 14.8633C22.3157 16.3233 22.3157 17.7832 22.3157 19.2432C23.7487 19.2432 25.1815 19.2432 26.6145 19.2432C26.6145 20.3246 26.6145 21.4061 26.6145 22.4876C25.1815 22.4876 23.7487 22.4876 22.3157 22.4876C22.3157 23.9475 22.3157 25.4075 22.3157 26.8675C21.2072 26.8675 20.0987 26.8675 18.9902 26.8675C18.9902 25.4616 18.9902 24.0557 18.9902 22.6498C17.5714 22.5689 16.1385 22.5419 14.6914 22.5687C14.6914 21.4602 14.6914 20.3517 14.6914 19.2432C16.0973 19.2432 17.5032 19.2432 18.9091 19.2432C18.9091 17.7832 18.9091 16.3233 18.9091 14.8633Z" fill="url(#paint1_linear_38_6275)"/>
<path d="M60.6539 19.018C60.4619 18.106 60.0359 17.422 59.3759 16.966C58.7279 16.51 57.9539 16.282 57.0539 16.282C56.2859 16.282 55.6259 16.426 55.0739 16.714C54.5339 17.002 54.0839 17.392 53.7239 17.884C53.3759 18.364 53.1179 18.916 52.9499 19.54C52.7819 20.164 52.6979 20.812 52.6979 21.484C52.6979 22.216 52.7819 22.912 52.9499 23.572C53.1179 24.22 53.3759 24.79 53.7239 25.282C54.0839 25.762 54.5399 26.146 55.0919 26.434C55.6439 26.722 56.3039 26.866 57.0719 26.866C57.6359 26.866 58.1339 26.776 58.5659 26.596C59.0099 26.404 59.3879 26.146 59.6999 25.822C60.0239 25.486 60.2759 25.09 60.4559 24.634C60.6359 24.178 60.7439 23.686 60.7799 23.158H62.4899C62.3219 24.778 61.7639 26.038 60.8159 26.938C59.8679 27.838 58.5719 28.288 56.9279 28.288C55.9319 28.288 55.0619 28.12 54.3179 27.784C53.5739 27.436 52.9559 26.962 52.4639 26.362C51.9719 25.762 51.5999 25.054 51.3479 24.238C51.1079 23.422 50.9879 22.546 50.9879 21.61C50.9879 20.674 51.1199 19.798 51.3839 18.982C51.6479 18.154 52.0319 17.434 52.5359 16.822C53.0519 16.21 53.6879 15.73 54.4439 15.382C55.2119 15.022 56.0879 14.842 57.0719 14.842C57.7439 14.842 58.3799 14.932 58.9799 15.112C59.5799 15.292 60.1139 15.556 60.5819 15.904C61.0499 16.252 61.4399 16.69 61.7519 17.218C62.0639 17.734 62.2679 18.334 62.3639 19.018H60.6539ZM72.6001 27.964C72.3361 28.12 71.9701 28.198 71.5021 28.198C71.1061 28.198 70.7881 28.09 70.5481 27.874C70.3201 27.646 70.2061 27.28 70.2061 26.776C69.7861 27.28 69.2941 27.646 68.7301 27.874C68.1781 28.09 67.5781 28.198 66.9301 28.198C66.5101 28.198 66.1081 28.15 65.7241 28.054C65.3521 27.958 65.0281 27.808 64.7521 27.604C64.4761 27.4 64.2541 27.136 64.0861 26.812C63.9301 26.476 63.8521 26.074 63.8521 25.606C63.8521 25.078 63.9421 24.646 64.1221 24.31C64.3021 23.974 64.5361 23.704 64.8241 23.5C65.1241 23.284 65.4601 23.122 65.8321 23.014C66.2161 22.906 66.6061 22.816 67.0021 22.744C67.4221 22.66 67.8181 22.6 68.1901 22.564C68.5741 22.516 68.9101 22.456 69.1981 22.384C69.4861 22.3 69.7141 22.186 69.8821 22.042C70.0501 21.886 70.1341 21.664 70.1341 21.376C70.1341 21.04 70.0681 20.77 69.9361 20.566C69.8161 20.362 69.6541 20.206 69.4501 20.098C69.2581 19.99 69.0361 19.918 68.7841 19.882C68.5441 19.846 68.3041 19.828 68.0641 19.828C67.4161 19.828 66.8761 19.954 66.4441 20.206C66.0121 20.446 65.7781 20.908 65.7421 21.592H64.2121C64.2361 21.016 64.3561 20.53 64.5721 20.134C64.7881 19.738 65.0761 19.42 65.4361 19.18C65.7961 18.928 66.2041 18.748 66.6601 18.64C67.1281 18.532 67.6261 18.478 68.1541 18.478C68.5741 18.478 68.9881 18.508 69.3961 18.568C69.8161 18.628 70.1941 18.754 70.5301 18.946C70.8661 19.126 71.1361 19.384 71.3401 19.72C71.5441 20.056 71.6461 20.494 71.6461 21.034V25.822C71.6461 26.182 71.6641 26.446 71.7001 26.614C71.7481 26.782 71.8921 26.866 72.1321 26.866C72.2641 26.866 72.4201 26.836 72.6001 26.776V27.964ZM70.1161 23.194C69.9241 23.338 69.6721 23.446 69.3601 23.518C69.0481 23.578 68.7181 23.632 68.3701 23.68C68.0341 23.716 67.6921 23.764 67.3441 23.824C66.9961 23.872 66.6841 23.956 66.4081 24.076C66.1321 24.196 65.9041 24.37 65.7241 24.598C65.5561 24.814 65.4721 25.114 65.4721 25.498C65.4721 25.75 65.5201 25.966 65.6161 26.146C65.7241 26.314 65.8561 26.452 66.0121 26.56C66.1801 26.668 66.3721 26.746 66.5881 26.794C66.8041 26.842 67.0321 26.866 67.2721 26.866C67.7761 26.866 68.2081 26.8 68.5681 26.668C68.9281 26.524 69.2221 26.35 69.4501 26.146C69.6781 25.93 69.8461 25.702 69.9541 25.462C70.0621 25.21 70.1161 24.976 70.1161 24.76V23.194ZM73.9701 18.694H75.4101V20.656H75.4461C75.8181 19.9 76.2741 19.342 76.8141 18.982C77.3541 18.622 78.0381 18.454 78.8661 18.478V20.098C78.2541 20.098 77.7321 20.182 77.3001 20.35C76.8681 20.518 76.5201 20.764 76.2561 21.088C75.9921 21.412 75.8001 21.808 75.6801 22.276C75.5601 22.732 75.5001 23.26 75.5001 23.86V28H73.9701V18.694ZM86.1638 22.456C86.1398 22.096 86.0558 21.754 85.9118 21.43C85.7798 21.106 85.5938 20.83 85.3538 20.602C85.1258 20.362 84.8498 20.176 84.5258 20.044C84.2138 19.9 83.8658 19.828 83.4818 19.828C83.0858 19.828 82.7258 19.9 82.4018 20.044C82.0898 20.176 81.8198 20.362 81.5918 20.602C81.3638 20.842 81.1838 21.124 81.0518 21.448C80.9198 21.76 80.8418 22.096 80.8178 22.456H86.1638ZM87.6398 25.048C87.4358 26.092 86.9858 26.878 86.2898 27.406C85.5938 27.934 84.7178 28.198 83.6618 28.198C82.9178 28.198 82.2698 28.078 81.7178 27.838C81.1778 27.598 80.7218 27.262 80.3498 26.83C79.9778 26.398 79.6958 25.882 79.5038 25.282C79.3238 24.682 79.2218 24.028 79.1978 23.32C79.1978 22.612 79.3058 21.964 79.5218 21.376C79.7378 20.788 80.0378 20.278 80.4218 19.846C80.8178 19.414 81.2798 19.078 81.8078 18.838C82.3478 18.598 82.9358 18.478 83.5718 18.478C84.3998 18.478 85.0838 18.652 85.6238 19C86.1758 19.336 86.6138 19.768 86.9378 20.296C87.2738 20.824 87.5018 21.4 87.6218 22.024C87.7538 22.648 87.8078 23.242 87.7838 23.806H80.8178C80.8058 24.214 80.8538 24.604 80.9618 24.976C81.0698 25.336 81.2438 25.66 81.4838 25.948C81.7238 26.224 82.0298 26.446 82.4018 26.614C82.7738 26.782 83.2118 26.866 83.7158 26.866C84.3638 26.866 84.8918 26.716 85.2998 26.416C85.7198 26.116 85.9958 25.66 86.1278 25.048H87.6398ZM98.0278 19.468C97.9798 19.144 97.8718 18.85 97.7038 18.586C97.5358 18.31 97.3258 18.07 97.0738 17.866C96.8218 17.662 96.5338 17.506 96.2098 17.398C95.8978 17.278 95.5678 17.218 95.2198 17.218C94.5838 17.218 94.0438 17.344 93.5998 17.596C93.1558 17.836 92.7958 18.166 92.5198 18.586C92.2438 18.994 92.0398 19.462 91.9078 19.99C91.7878 20.518 91.7278 21.064 91.7278 21.628C91.7278 22.168 91.7878 22.696 91.9078 23.212C92.0398 23.716 92.2438 24.172 92.5198 24.58C92.7958 24.988 93.1558 25.318 93.5998 25.57C94.0438 25.81 94.5838 25.93 95.2198 25.93C96.0838 25.93 96.7558 25.666 97.2358 25.138C97.7278 24.61 98.0278 23.914 98.1358 23.05H100.872C100.8 23.854 100.614 24.58 100.314 25.228C100.014 25.876 99.6178 26.428 99.1258 26.884C98.6338 27.34 98.0578 27.688 97.3978 27.928C96.7378 28.168 96.0118 28.288 95.2198 28.288C94.2358 28.288 93.3478 28.12 92.5558 27.784C91.7758 27.436 91.1158 26.962 90.5758 26.362C90.0358 25.762 89.6218 25.06 89.3338 24.256C89.0458 23.44 88.9018 22.564 88.9018 21.628C88.9018 20.668 89.0458 19.78 89.3338 18.964C89.6218 18.136 90.0358 17.416 90.5758 16.804C91.1158 16.192 91.7758 15.712 92.5558 15.364C93.3478 15.016 94.2358 14.842 95.2198 14.842C95.9278 14.842 96.5938 14.944 97.2178 15.148C97.8538 15.352 98.4178 15.652 98.9098 16.048C99.4138 16.432 99.8278 16.912 100.152 17.488C100.476 18.064 100.68 18.724 100.764 19.468H98.0278ZM104.8 23.356C104.8 23.728 104.836 24.094 104.908 24.454C104.98 24.802 105.1 25.12 105.268 25.408C105.448 25.684 105.682 25.906 105.97 26.074C106.258 26.242 106.618 26.326 107.05 26.326C107.482 26.326 107.842 26.242 108.13 26.074C108.43 25.906 108.664 25.684 108.832 25.408C109.012 25.12 109.138 24.802 109.21 24.454C109.282 24.094 109.318 23.728 109.318 23.356C109.318 22.984 109.282 22.618 109.21 22.258C109.138 21.898 109.012 21.58 108.832 21.304C108.664 21.028 108.43 20.806 108.13 20.638C107.842 20.458 107.482 20.368 107.05 20.368C106.618 20.368 106.258 20.458 105.97 20.638C105.682 20.806 105.448 21.028 105.268 21.304C105.1 21.58 104.98 21.898 104.908 22.258C104.836 22.618 104.8 22.984 104.8 23.356ZM102.244 23.356C102.244 22.612 102.358 21.94 102.586 21.34C102.814 20.728 103.138 20.212 103.558 19.792C103.978 19.36 104.482 19.03 105.07 18.802C105.658 18.562 106.318 18.442 107.05 18.442C107.782 18.442 108.442 18.562 109.03 18.802C109.63 19.03 110.14 19.36 110.56 19.792C110.98 20.212 111.304 20.728 111.532 21.34C111.76 21.94 111.874 22.612 111.874 23.356C111.874 24.1 111.76 24.772 111.532 25.372C111.304 25.972 110.98 26.488 110.56 26.92C110.14 27.34 109.63 27.664 109.03 27.892C108.442 28.12 107.782 28.234 107.05 28.234C106.318 28.234 105.658 28.12 105.07 27.892C104.482 27.664 103.978 27.34 103.558 26.92C103.138 26.488 102.814 25.972 102.586 25.372C102.358 24.772 102.244 24.1 102.244 23.356ZM113.535 18.694H115.965V19.99H116.019C116.343 19.45 116.763 19.06 117.279 18.82C117.795 18.568 118.323 18.442 118.863 18.442C119.547 18.442 120.105 18.538 120.537 18.73C120.981 18.91 121.329 19.168 121.581 19.504C121.833 19.828 122.007 20.23 122.103 20.71C122.211 21.178 122.265 21.7 122.265 22.276V28H119.709V22.744C119.709 21.976 119.589 21.406 119.349 21.034C119.109 20.65 118.683 20.458 118.071 20.458C117.375 20.458 116.871 20.668 116.559 21.088C116.247 21.496 116.091 22.174 116.091 23.122V28H113.535V18.694ZM124.205 18.694H126.635V19.99H126.689C127.013 19.45 127.433 19.06 127.949 18.82C128.465 18.568 128.993 18.442 129.533 18.442C130.217 18.442 130.775 18.538 131.207 18.73C131.651 18.91 131.999 19.168 132.251 19.504C132.503 19.828 132.677 20.23 132.773 20.71C132.881 21.178 132.935 21.7 132.935 22.276V28H130.379V22.744C130.379 21.976 130.259 21.406 130.019 21.034C129.779 20.65 129.353 20.458 128.741 20.458C128.045 20.458 127.541 20.668 127.229 21.088C126.917 21.496 126.761 22.174 126.761 23.122V28H124.205V18.694ZM141.139 22.348C141.019 21.7 140.803 21.208 140.491 20.872C140.191 20.536 139.729 20.368 139.105 20.368C138.697 20.368 138.355 20.44 138.079 20.584C137.815 20.716 137.599 20.884 137.431 21.088C137.275 21.292 137.161 21.508 137.089 21.736C137.029 21.964 136.993 22.168 136.981 22.348H141.139ZM136.981 23.968C137.017 24.796 137.227 25.396 137.611 25.768C137.995 26.14 138.547 26.326 139.267 26.326C139.783 26.326 140.227 26.2 140.599 25.948C140.971 25.684 141.199 25.408 141.283 25.12H143.533C143.173 26.236 142.621 27.034 141.877 27.514C141.133 27.994 140.233 28.234 139.177 28.234C138.445 28.234 137.785 28.12 137.197 27.892C136.609 27.652 136.111 27.316 135.703 26.884C135.295 26.452 134.977 25.936 134.749 25.336C134.533 24.736 134.425 24.076 134.425 23.356C134.425 22.66 134.539 22.012 134.767 21.412C134.995 20.812 135.319 20.296 135.739 19.864C136.159 19.42 136.657 19.072 137.233 18.82C137.821 18.568 138.469 18.442 139.177 18.442C139.969 18.442 140.659 18.598 141.247 18.91C141.835 19.21 142.315 19.618 142.687 20.134C143.071 20.65 143.347 21.238 143.515 21.898C143.683 22.558 143.743 23.248 143.695 23.968H136.981ZM151.547 21.97C151.379 20.902 150.749 20.368 149.657 20.368C149.249 20.368 148.907 20.464 148.631 20.656C148.355 20.836 148.127 21.076 147.947 21.376C147.779 21.664 147.659 21.988 147.587 22.348C147.515 22.696 147.479 23.044 147.479 23.392C147.479 23.728 147.515 24.07 147.587 24.418C147.659 24.766 147.773 25.084 147.929 25.372C148.097 25.648 148.319 25.876 148.595 26.056C148.871 26.236 149.207 26.326 149.603 26.326C150.215 26.326 150.683 26.158 151.007 25.822C151.343 25.474 151.553 25.012 151.637 24.436H154.103C153.935 25.672 153.455 26.614 152.663 27.262C151.871 27.91 150.857 28.234 149.621 28.234C148.925 28.234 148.283 28.12 147.695 27.892C147.119 27.652 146.627 27.322 146.219 26.902C145.811 26.482 145.493 25.984 145.265 25.408C145.037 24.82 144.923 24.178 144.923 23.482C144.923 22.762 145.025 22.096 145.229 21.484C145.445 20.86 145.757 20.326 146.165 19.882C146.573 19.426 147.071 19.072 147.659 18.82C148.247 18.568 148.919 18.442 149.675 18.442C150.227 18.442 150.755 18.514 151.259 18.658C151.775 18.802 152.231 19.024 152.627 19.324C153.035 19.612 153.365 19.978 153.617 20.422C153.869 20.854 154.013 21.37 154.049 21.97H151.547ZM158.787 18.694H160.659V20.404H158.787V25.012C158.787 25.444 158.859 25.732 159.003 25.876C159.147 26.02 159.435 26.092 159.867 26.092C160.011 26.092 160.149 26.086 160.281 26.074C160.413 26.062 160.539 26.044 160.659 26.02V28C160.443 28.036 160.203 28.06 159.939 28.072C159.675 28.084 159.417 28.09 159.165 28.09C158.769 28.09 158.391 28.06 158.031 28C157.683 27.952 157.371 27.85 157.095 27.694C156.831 27.538 156.621 27.316 156.465 27.028C156.309 26.74 156.231 26.362 156.231 25.894V20.404H154.683V18.694H156.231V15.904H158.787V18.694Z" fill="#5C5C5C"/>
<defs>
<linearGradient id="paint0_linear_38_6275" x1="9.0107" y1="31.0023" x2="35.8579" y2="12.266" gradientUnits="userSpaceOnUse">
<stop offset="0.192708" stop-color="#156778"/>
<stop offset="1" stop-color="#4FB7CD"/>
</linearGradient>
<linearGradient id="paint1_linear_38_6275" x1="16.7157" y1="25.2809" x2="24.7455" y2="18.9138" gradientUnits="userSpaceOnUse">
<stop stop-color="#166879"/>
<stop offset="1" stop-color="#40A3B7"/>
</linearGradient>
</defs>
</svg>
