<svg xmlns="http://www.w3.org/2000/svg" xmlns:xlink="http://www.w3.org/1999/xlink" width="278.63" height="209.994" viewBox="0 0 278.63 209.994"><defs><linearGradient id="a" x1="1" x2="0" y2="1" gradientUnits="objectBoundingBox"><stop offset="0" stop-color="#ff8960"/><stop offset="1" stop-color="#ff62a5"/></linearGradient></defs><g transform="translate(-825 -311.039)"><g transform="translate(14.728 -100)"><g transform="translate(784 392.5)"><g transform="translate(0 20)"><path d="M0,0V2" transform="translate(171)" fill="none" stroke="#d2d8df" stroke-linecap="round" stroke-miterlimit="10" stroke-width="2.921"/><path d="M0,0H2" transform="translate(165 6)" fill="none" stroke="#d2d8df" stroke-linecap="round" stroke-miterlimit="10" stroke-width="2.921"/><path d="M0,2V0" transform="translate(171 10)" fill="none" stroke="#d2d8df" stroke-linecap="round" stroke-miterlimit="10" stroke-width="2.921"/><path d="M2,0H0" transform="translate(174 6)" fill="none" stroke="#d2d8df" stroke-linecap="round" stroke-miterlimit="10" stroke-width="2.921"/></g><g transform="translate(26 27)"><path d="M4.328,0A4.329,4.329,0,1,1,0,4.329" transform="translate(239.926 166.039)" fill="none" stroke="#d2d8df" stroke-linecap="round" stroke-miterlimit="10" stroke-width="2.921"/><path d="M0,7.326C2.57,6.524,6.509,3.381,7.421,0c.827,2.989,4.293,6.524,7.421,6.792-3.521,1.247-6.887,4.95-7.421,7.859C7.057,11.686,2.4,7.758,0,7.326" transform="translate(264.062 119.437)" fill="#ebecee"/><path d="M0,3.663A6.307,6.307,0,0,0,3.71,0,5.071,5.071,0,0,0,7.42,3.4,6.169,6.169,0,0,0,3.71,7.325C3.528,5.842,1.2,3.878,0,3.663" transform="translate(0.273 161.043)" fill="#ebecee"/><path d="M11.219,5.611A5.609,5.609,0,1,1,5.61,0a5.61,5.61,0,0,1,5.609,5.611" transform="translate(171.087 180.747)" fill="#ebecee"/><path d="M5.609,2.806A2.8,2.8,0,1,1,2.8,0,2.805,2.805,0,0,1,5.609,2.806Z" transform="translate(61.235 194.462)" fill="none" stroke="#d2d8df" stroke-linecap="round" stroke-miterlimit="10" stroke-width="2.921"/></g></g><g transform="translate(843.395 451.422)"><path d="M193.731,57.4A38.016,38.016,0,0,0,177.5,50.8,57.393,57.393,0,0,0,75.265,22.051,36.915,36.915,0,0,0,26.915,52.5,38.264,38.264,0,0,0,38.08,127.308a24.75,24.75,0,0,0,3.31.231H166.507A38.259,38.259,0,0,0,193.731,57.4" transform="translate(0 0.078)" fill="#f1f2f7"/><path d="M49.37,2.805A38.673,38.673,0,0,0,34.821,0C15.587,0,0,13.729,0,30.662a27.075,27.075,0,0,0,.471,5.023C15.426,14.56,25.731,6.17,49.37,2.805" transform="translate(38 33)" fill="#e0e2ee"/></g><path d="M0,75.6H18.247L8.689,106.007,51.266,63H25.632L39.969,0Z" transform="translate(933.395 437.093)" fill="url(#a)"/></g><g transform="translate(-85 -31.971)"><g transform="translate(921 383.262)"><g transform="translate(0 0)"><path d="M43.756,65.613a5.339,5.339,0,0,0-5.882,1.172,1.39,1.39,0,0,0,.016,1.966l2.817,2.782a1.39,1.39,0,0,0,1.949,0l2.83-2.769A1.39,1.39,0,0,0,45.5,66.8,5.332,5.332,0,0,0,43.756,65.613Z" transform="translate(-20.178 -42.538)" fill="#00a19a " fill-rule="evenodd"/><path d="M42.01,54.08a11.957,11.957,0,0,0-15.043,3.667,1.392,1.392,0,0,0,2.254,1.633A9.162,9.162,0,0,1,44,59.283a1.389,1.389,0,0,0,2.232-1.654A11.931,11.931,0,0,0,42.01,54.08Z" transform="translate(-15.139 -36.745)" fill="#00a19a " fill-rule="evenodd"/><path d="M40.107,39.984a19.756,19.756,0,0,0-23.522,5.269,1.388,1.388,0,1,0,2.133,1.775,16.977,16.977,0,0,1,26.038-.052,1.391,1.391,0,0,0,2.134-1.786A19.76,19.76,0,0,0,40.107,39.984Z" transform="translate(-10.257 -29.884)" fill="#00a19a" fill-rule="evenodd"/><path d="M26.483,25.422a25.213,25.213,0,0,1,10.579,2.323c.463.214.918.446,1.367.688a8.211,8.211,0,0,1,.559-2.837c-.253-.127-.5-.259-.762-.377a28.007,28.007,0,0,0-32.91,7.088,1.39,1.39,0,0,0,2.1,1.818,25.193,25.193,0,0,1,19.064-8.7Z" transform="translate(-4.979 -22.635)" fill="#00a19a" fill-rule="evenodd"/></g></g><g transform="translate(956.495 383)"><g transform="translate(0 0)"><path d="M77.88,22.143A6.217,6.217,0,1,0,84.1,28.36,6.224,6.224,0,0,0,77.88,22.143ZM81,30.3a.768.768,0,0,1-1.086,1.086l-2.008-2.008L75.9,31.385A.768.768,0,0,1,74.815,30.3l2.007-2.008-2.007-2.008A.768.768,0,0,1,75.9,25.2l2.008,2.008L79.916,25.2A.768.768,0,0,1,81,26.284l-2.008,2.008Z" transform="translate(-71.663 -22.143)" fill="#ed1c24" fill-rule="evenodd"/></g></g></g><path d="M10788.948,5325.292h0l.171.35c.408.841,7.449,15.253,9.73,15.3,2.373.052,8.746.671,8.746.671s5.883-14.887,5.677-15.042-.182-.464-1.136-.542-23.634-1.729-23.634-1.729" transform="translate(-9820 -4990)" fill="#fff"/></g></svg> 